<mxfile host="app.diagrams.net" modified="2020-10-10T15:52:57.619Z" agent="5.0 (X11; Linux x86_64) AppleWebKit/537.36 (KHTML, like Gecko) Chrome/86.0.4240.75 Safari/537.36" etag="Dzr2O1_6bopUrW8BJrWA" version="13.7.9" type="github">
  <diagram id="UJd_bTsEMRmkmFOwq1OL" name="Page-1">
    <mxGraphModel dx="2710" dy="1548" grid="1" gridSize="10" guides="1" tooltips="1" connect="1" arrows="1" fold="1" page="1" pageScale="1" pageWidth="850" pageHeight="1100" math="0" shadow="0">
      <root>
        <mxCell id="0" />
        <mxCell id="1" parent="0" />
        <mxCell id="14xGYmycXX8T6q_JKq77-135" value="" style="shape=partialRectangle;connectable=0;fillColor=none;top=0;left=0;bottom=0;right=0;editable=1;overflow=hidden;" vertex="1" parent="1">
          <mxGeometry x="653" y="921" width="30" height="30" as="geometry" />
        </mxCell>
        <mxCell id="14xGYmycXX8T6q_JKq77-248" value="" style="group" vertex="1" connectable="0" parent="1">
          <mxGeometry x="50" y="740" width="220" height="244" as="geometry" />
        </mxCell>
        <mxCell id="14xGYmycXX8T6q_JKq77-113" value="Contact" style="shape=table;startSize=30;container=1;collapsible=1;childLayout=tableLayout;fixedRows=1;rowLines=0;fontStyle=1;align=center;resizeLast=1;" vertex="1" parent="14xGYmycXX8T6q_JKq77-248">
          <mxGeometry width="220" height="244" as="geometry" />
        </mxCell>
        <mxCell id="14xGYmycXX8T6q_JKq77-114" value="" style="shape=partialRectangle;collapsible=0;dropTarget=0;pointerEvents=0;fillColor=none;top=0;left=0;bottom=1;right=0;points=[[0,0.5],[1,0.5]];portConstraint=eastwest;" vertex="1" parent="14xGYmycXX8T6q_JKq77-113">
          <mxGeometry y="30" width="220" height="30" as="geometry" />
        </mxCell>
        <mxCell id="14xGYmycXX8T6q_JKq77-115" value="PK" style="shape=partialRectangle;connectable=0;fillColor=none;top=0;left=0;bottom=0;right=0;fontStyle=1;overflow=hidden;" vertex="1" parent="14xGYmycXX8T6q_JKq77-114">
          <mxGeometry width="30" height="30" as="geometry" />
        </mxCell>
        <mxCell id="14xGYmycXX8T6q_JKq77-116" value="UniqueID" style="shape=partialRectangle;connectable=0;fillColor=none;top=0;left=0;bottom=0;right=0;align=left;spacingLeft=6;fontStyle=5;overflow=hidden;" vertex="1" parent="14xGYmycXX8T6q_JKq77-114">
          <mxGeometry x="30" width="190" height="30" as="geometry" />
        </mxCell>
        <mxCell id="14xGYmycXX8T6q_JKq77-117" value="" style="shape=partialRectangle;collapsible=0;dropTarget=0;pointerEvents=0;fillColor=none;top=0;left=0;bottom=0;right=0;points=[[0,0.5],[1,0.5]];portConstraint=eastwest;" vertex="1" parent="14xGYmycXX8T6q_JKq77-113">
          <mxGeometry y="60" width="220" height="30" as="geometry" />
        </mxCell>
        <mxCell id="14xGYmycXX8T6q_JKq77-118" value="" style="shape=partialRectangle;connectable=0;fillColor=none;top=0;left=0;bottom=0;right=0;editable=1;overflow=hidden;" vertex="1" parent="14xGYmycXX8T6q_JKq77-117">
          <mxGeometry width="30" height="30" as="geometry" />
        </mxCell>
        <mxCell id="14xGYmycXX8T6q_JKq77-119" value="" style="group" vertex="1" connectable="0" parent="14xGYmycXX8T6q_JKq77-117">
          <mxGeometry x="30" width="190" height="30" as="geometry" />
        </mxCell>
        <mxCell id="14xGYmycXX8T6q_JKq77-120" value="string" style="shape=partialRectangle;connectable=0;fillColor=none;top=0;left=0;bottom=0;right=0;align=left;spacingLeft=6;overflow=hidden;" vertex="1" parent="14xGYmycXX8T6q_JKq77-119">
          <mxGeometry x="110" width="80" height="30" as="geometry" />
        </mxCell>
        <mxCell id="14xGYmycXX8T6q_JKq77-121" value="First Name" style="shape=partialRectangle;connectable=0;fillColor=none;top=0;left=0;bottom=0;right=0;align=left;spacingLeft=6;overflow=hidden;" vertex="1" parent="14xGYmycXX8T6q_JKq77-119">
          <mxGeometry width="90" height="30" as="geometry" />
        </mxCell>
        <mxCell id="14xGYmycXX8T6q_JKq77-122" value="" style="shape=partialRectangle;collapsible=0;dropTarget=0;pointerEvents=0;fillColor=none;top=0;left=0;bottom=0;right=0;points=[[0,0.5],[1,0.5]];portConstraint=eastwest;" vertex="1" parent="14xGYmycXX8T6q_JKq77-113">
          <mxGeometry y="90" width="220" height="30" as="geometry" />
        </mxCell>
        <mxCell id="14xGYmycXX8T6q_JKq77-123" value="" style="shape=partialRectangle;connectable=0;fillColor=none;top=0;left=0;bottom=0;right=0;editable=1;overflow=hidden;" vertex="1" parent="14xGYmycXX8T6q_JKq77-122">
          <mxGeometry width="30" height="30" as="geometry" />
        </mxCell>
        <mxCell id="14xGYmycXX8T6q_JKq77-124" value="Last Name" style="shape=partialRectangle;connectable=0;fillColor=none;top=0;left=0;bottom=0;right=0;align=left;spacingLeft=6;overflow=hidden;" vertex="1" parent="14xGYmycXX8T6q_JKq77-122">
          <mxGeometry x="30" width="190" height="30" as="geometry" />
        </mxCell>
        <mxCell id="14xGYmycXX8T6q_JKq77-125" value="" style="shape=partialRectangle;collapsible=0;dropTarget=0;pointerEvents=0;fillColor=none;top=0;left=0;bottom=0;right=0;points=[[0,0.5],[1,0.5]];portConstraint=eastwest;" vertex="1" parent="14xGYmycXX8T6q_JKq77-113">
          <mxGeometry y="120" width="220" height="30" as="geometry" />
        </mxCell>
        <mxCell id="14xGYmycXX8T6q_JKq77-126" value="" style="shape=partialRectangle;connectable=0;fillColor=none;top=0;left=0;bottom=0;right=0;editable=1;overflow=hidden;" vertex="1" parent="14xGYmycXX8T6q_JKq77-125">
          <mxGeometry width="30" height="30" as="geometry" />
        </mxCell>
        <mxCell id="14xGYmycXX8T6q_JKq77-127" value="Phone" style="shape=partialRectangle;connectable=0;fillColor=none;top=0;left=0;bottom=0;right=0;align=left;spacingLeft=6;overflow=hidden;" vertex="1" parent="14xGYmycXX8T6q_JKq77-125">
          <mxGeometry x="30" width="190" height="30" as="geometry" />
        </mxCell>
        <mxCell id="14xGYmycXX8T6q_JKq77-128" value="Email" style="shape=partialRectangle;connectable=0;fillColor=none;top=0;left=0;bottom=0;right=0;align=left;spacingLeft=6;overflow=hidden;" vertex="1" parent="14xGYmycXX8T6q_JKq77-248">
          <mxGeometry x="30" y="150" width="150" height="30" as="geometry" />
        </mxCell>
        <mxCell id="14xGYmycXX8T6q_JKq77-129" value="Address" style="shape=partialRectangle;connectable=0;fillColor=none;top=0;left=0;bottom=0;right=0;align=left;spacingLeft=6;overflow=hidden;" vertex="1" parent="14xGYmycXX8T6q_JKq77-248">
          <mxGeometry x="30" y="180" width="150" height="30" as="geometry" />
        </mxCell>
        <mxCell id="14xGYmycXX8T6q_JKq77-130" value="Relationship" style="shape=partialRectangle;connectable=0;fillColor=none;top=0;left=0;bottom=0;right=0;align=left;spacingLeft=6;overflow=hidden;" vertex="1" parent="14xGYmycXX8T6q_JKq77-248">
          <mxGeometry x="30" y="210" width="150" height="30" as="geometry" />
        </mxCell>
        <mxCell id="14xGYmycXX8T6q_JKq77-137" value="Int" style="shape=partialRectangle;connectable=0;fillColor=none;top=0;left=0;bottom=0;right=0;align=left;spacingLeft=6;overflow=hidden;" vertex="1" parent="14xGYmycXX8T6q_JKq77-248">
          <mxGeometry x="140" y="30" width="80" height="30" as="geometry" />
        </mxCell>
        <mxCell id="14xGYmycXX8T6q_JKq77-138" value="string" style="shape=partialRectangle;connectable=0;fillColor=none;top=0;left=0;bottom=0;right=0;align=left;spacingLeft=6;overflow=hidden;" vertex="1" parent="14xGYmycXX8T6q_JKq77-248">
          <mxGeometry x="140" y="90" width="80" height="30" as="geometry" />
        </mxCell>
        <mxCell id="14xGYmycXX8T6q_JKq77-139" value="string" style="shape=partialRectangle;connectable=0;fillColor=none;top=0;left=0;bottom=0;right=0;align=left;spacingLeft=6;overflow=hidden;" vertex="1" parent="14xGYmycXX8T6q_JKq77-248">
          <mxGeometry x="140" y="120" width="80" height="30" as="geometry" />
        </mxCell>
        <mxCell id="14xGYmycXX8T6q_JKq77-140" value="string" style="shape=partialRectangle;connectable=0;fillColor=none;top=0;left=0;bottom=0;right=0;align=left;spacingLeft=6;overflow=hidden;" vertex="1" parent="14xGYmycXX8T6q_JKq77-248">
          <mxGeometry x="140" y="150" width="80" height="30" as="geometry" />
        </mxCell>
        <mxCell id="14xGYmycXX8T6q_JKq77-141" value="string" style="shape=partialRectangle;connectable=0;fillColor=none;top=0;left=0;bottom=0;right=0;align=left;spacingLeft=6;overflow=hidden;" vertex="1" parent="14xGYmycXX8T6q_JKq77-248">
          <mxGeometry x="140" y="180" width="80" height="30" as="geometry" />
        </mxCell>
        <mxCell id="14xGYmycXX8T6q_JKq77-142" value="string" style="shape=partialRectangle;connectable=0;fillColor=none;top=0;left=0;bottom=0;right=0;align=left;spacingLeft=6;overflow=hidden;" vertex="1" parent="14xGYmycXX8T6q_JKq77-248">
          <mxGeometry x="140" y="210" width="80" height="30" as="geometry" />
        </mxCell>
        <mxCell id="14xGYmycXX8T6q_JKq77-250" value="" style="group" vertex="1" connectable="0" parent="1">
          <mxGeometry x="500" y="744" width="220" height="270" as="geometry" />
        </mxCell>
        <mxCell id="14xGYmycXX8T6q_JKq77-189" value="Sale" style="shape=table;startSize=30;container=1;collapsible=1;childLayout=tableLayout;fixedRows=1;rowLines=0;fontStyle=1;align=center;resizeLast=1;" vertex="1" parent="14xGYmycXX8T6q_JKq77-250">
          <mxGeometry width="220" height="250" as="geometry" />
        </mxCell>
        <mxCell id="14xGYmycXX8T6q_JKq77-190" value="" style="shape=partialRectangle;collapsible=0;dropTarget=0;pointerEvents=0;fillColor=none;top=0;left=0;bottom=1;right=0;points=[[0,0.5],[1,0.5]];portConstraint=eastwest;" vertex="1" parent="14xGYmycXX8T6q_JKq77-189">
          <mxGeometry y="30" width="220" height="30" as="geometry" />
        </mxCell>
        <mxCell id="14xGYmycXX8T6q_JKq77-191" value="PK" style="shape=partialRectangle;connectable=0;fillColor=none;top=0;left=0;bottom=0;right=0;fontStyle=1;overflow=hidden;" vertex="1" parent="14xGYmycXX8T6q_JKq77-190">
          <mxGeometry width="30" height="30" as="geometry" />
        </mxCell>
        <mxCell id="14xGYmycXX8T6q_JKq77-192" value="UniqueID" style="shape=partialRectangle;connectable=0;fillColor=none;top=0;left=0;bottom=0;right=0;align=left;spacingLeft=6;fontStyle=5;overflow=hidden;" vertex="1" parent="14xGYmycXX8T6q_JKq77-190">
          <mxGeometry x="30" width="190" height="30" as="geometry" />
        </mxCell>
        <mxCell id="14xGYmycXX8T6q_JKq77-193" value="" style="shape=partialRectangle;collapsible=0;dropTarget=0;pointerEvents=0;fillColor=none;top=0;left=0;bottom=0;right=0;points=[[0,0.5],[1,0.5]];portConstraint=eastwest;" vertex="1" parent="14xGYmycXX8T6q_JKq77-189">
          <mxGeometry y="60" width="220" height="30" as="geometry" />
        </mxCell>
        <mxCell id="14xGYmycXX8T6q_JKq77-194" value="FK" style="shape=partialRectangle;connectable=0;fillColor=none;top=0;left=0;bottom=0;right=0;editable=1;overflow=hidden;" vertex="1" parent="14xGYmycXX8T6q_JKq77-193">
          <mxGeometry width="30" height="30" as="geometry" />
        </mxCell>
        <mxCell id="14xGYmycXX8T6q_JKq77-195" value="" style="group" vertex="1" connectable="0" parent="14xGYmycXX8T6q_JKq77-193">
          <mxGeometry x="30" width="190" height="30" as="geometry" />
        </mxCell>
        <mxCell id="14xGYmycXX8T6q_JKq77-196" value="String" style="shape=partialRectangle;connectable=0;fillColor=none;top=0;left=0;bottom=0;right=0;align=left;spacingLeft=6;overflow=hidden;" vertex="1" parent="14xGYmycXX8T6q_JKq77-195">
          <mxGeometry x="110" width="80" height="30" as="geometry" />
        </mxCell>
        <mxCell id="14xGYmycXX8T6q_JKq77-197" value="Original_ID" style="shape=partialRectangle;connectable=0;fillColor=none;top=0;left=0;bottom=0;right=0;align=left;spacingLeft=6;overflow=hidden;" vertex="1" parent="14xGYmycXX8T6q_JKq77-195">
          <mxGeometry width="90" height="30" as="geometry" />
        </mxCell>
        <mxCell id="14xGYmycXX8T6q_JKq77-198" value="" style="shape=partialRectangle;collapsible=0;dropTarget=0;pointerEvents=0;fillColor=none;top=0;left=0;bottom=0;right=0;points=[[0,0.5],[1,0.5]];portConstraint=eastwest;" vertex="1" parent="14xGYmycXX8T6q_JKq77-189">
          <mxGeometry y="90" width="220" height="30" as="geometry" />
        </mxCell>
        <mxCell id="14xGYmycXX8T6q_JKq77-199" value="FK" style="shape=partialRectangle;connectable=0;fillColor=none;top=0;left=0;bottom=0;right=0;editable=1;overflow=hidden;" vertex="1" parent="14xGYmycXX8T6q_JKq77-198">
          <mxGeometry width="30" height="30" as="geometry" />
        </mxCell>
        <mxCell id="14xGYmycXX8T6q_JKq77-200" value="Print_ID" style="shape=partialRectangle;connectable=0;fillColor=none;top=0;left=0;bottom=0;right=0;align=left;spacingLeft=6;overflow=hidden;" vertex="1" parent="14xGYmycXX8T6q_JKq77-198">
          <mxGeometry x="30" width="190" height="30" as="geometry" />
        </mxCell>
        <mxCell id="14xGYmycXX8T6q_JKq77-201" value="" style="shape=partialRectangle;collapsible=0;dropTarget=0;pointerEvents=0;fillColor=none;top=0;left=0;bottom=0;right=0;points=[[0,0.5],[1,0.5]];portConstraint=eastwest;" vertex="1" parent="14xGYmycXX8T6q_JKq77-189">
          <mxGeometry y="120" width="220" height="30" as="geometry" />
        </mxCell>
        <mxCell id="14xGYmycXX8T6q_JKq77-202" value="FK" style="shape=partialRectangle;connectable=0;fillColor=none;top=0;left=0;bottom=0;right=0;editable=1;overflow=hidden;" vertex="1" parent="14xGYmycXX8T6q_JKq77-201">
          <mxGeometry width="30" height="30" as="geometry" />
        </mxCell>
        <mxCell id="14xGYmycXX8T6q_JKq77-203" value="Contact_ID" style="shape=partialRectangle;connectable=0;fillColor=none;top=0;left=0;bottom=0;right=0;align=left;spacingLeft=6;overflow=hidden;" vertex="1" parent="14xGYmycXX8T6q_JKq77-201">
          <mxGeometry x="30" width="190" height="30" as="geometry" />
        </mxCell>
        <mxCell id="14xGYmycXX8T6q_JKq77-204" value="Paid" style="shape=partialRectangle;connectable=0;fillColor=none;top=0;left=0;bottom=0;right=0;align=left;spacingLeft=6;overflow=hidden;" vertex="1" parent="14xGYmycXX8T6q_JKq77-250">
          <mxGeometry x="30" y="150" width="150" height="30" as="geometry" />
        </mxCell>
        <mxCell id="14xGYmycXX8T6q_JKq77-205" value="Delivered" style="shape=partialRectangle;connectable=0;fillColor=none;top=0;left=0;bottom=0;right=0;align=left;spacingLeft=6;overflow=hidden;" vertex="1" parent="14xGYmycXX8T6q_JKq77-250">
          <mxGeometry x="30" y="180" width="150" height="30" as="geometry" />
        </mxCell>
        <mxCell id="14xGYmycXX8T6q_JKq77-206" value="Price" style="shape=partialRectangle;connectable=0;fillColor=none;top=0;left=0;bottom=0;right=0;align=left;spacingLeft=6;overflow=hidden;" vertex="1" parent="14xGYmycXX8T6q_JKq77-250">
          <mxGeometry x="30" y="210" width="150" height="30" as="geometry" />
        </mxCell>
        <mxCell id="14xGYmycXX8T6q_JKq77-207" value="" style="shape=partialRectangle;connectable=0;fillColor=none;top=0;left=0;bottom=0;right=0;align=left;spacingLeft=6;overflow=hidden;" vertex="1" parent="14xGYmycXX8T6q_JKq77-250">
          <mxGeometry x="30" y="240" width="150" height="30" as="geometry" />
        </mxCell>
        <mxCell id="14xGYmycXX8T6q_JKq77-211" value="" style="shape=partialRectangle;connectable=0;fillColor=none;top=0;left=0;bottom=0;right=0;editable=1;overflow=hidden;" vertex="1" parent="14xGYmycXX8T6q_JKq77-250">
          <mxGeometry y="240" width="30" height="30" as="geometry" />
        </mxCell>
        <mxCell id="14xGYmycXX8T6q_JKq77-213" value="Int" style="shape=partialRectangle;connectable=0;fillColor=none;top=0;left=0;bottom=0;right=0;align=left;spacingLeft=6;overflow=hidden;" vertex="1" parent="14xGYmycXX8T6q_JKq77-250">
          <mxGeometry x="140" y="30" width="80" height="30" as="geometry" />
        </mxCell>
        <mxCell id="14xGYmycXX8T6q_JKq77-214" value="String" style="shape=partialRectangle;connectable=0;fillColor=none;top=0;left=0;bottom=0;right=0;align=left;spacingLeft=6;overflow=hidden;" vertex="1" parent="14xGYmycXX8T6q_JKq77-250">
          <mxGeometry x="140" y="90" width="80" height="30" as="geometry" />
        </mxCell>
        <mxCell id="14xGYmycXX8T6q_JKq77-215" value="String" style="shape=partialRectangle;connectable=0;fillColor=none;top=0;left=0;bottom=0;right=0;align=left;spacingLeft=6;overflow=hidden;" vertex="1" parent="14xGYmycXX8T6q_JKq77-250">
          <mxGeometry x="140" y="120" width="80" height="30" as="geometry" />
        </mxCell>
        <mxCell id="14xGYmycXX8T6q_JKq77-216" value="bool" style="shape=partialRectangle;connectable=0;fillColor=none;top=0;left=0;bottom=0;right=0;align=left;spacingLeft=6;overflow=hidden;" vertex="1" parent="14xGYmycXX8T6q_JKq77-250">
          <mxGeometry x="140" y="150" width="80" height="30" as="geometry" />
        </mxCell>
        <mxCell id="14xGYmycXX8T6q_JKq77-217" value="bool" style="shape=partialRectangle;connectable=0;fillColor=none;top=0;left=0;bottom=0;right=0;align=left;spacingLeft=6;overflow=hidden;" vertex="1" parent="14xGYmycXX8T6q_JKq77-250">
          <mxGeometry x="140" y="180" width="80" height="30" as="geometry" />
        </mxCell>
        <mxCell id="14xGYmycXX8T6q_JKq77-218" value="bool" style="shape=partialRectangle;connectable=0;fillColor=none;top=0;left=0;bottom=0;right=0;align=left;spacingLeft=6;overflow=hidden;" vertex="1" parent="14xGYmycXX8T6q_JKq77-250">
          <mxGeometry x="140" y="210" width="80" height="30" as="geometry" />
        </mxCell>
        <mxCell id="14xGYmycXX8T6q_JKq77-219" value="" style="shape=partialRectangle;connectable=0;fillColor=none;top=0;left=0;bottom=0;right=0;align=left;spacingLeft=6;overflow=hidden;" vertex="1" parent="14xGYmycXX8T6q_JKq77-250">
          <mxGeometry x="140" y="240" width="80" height="30" as="geometry" />
        </mxCell>
        <mxCell id="14xGYmycXX8T6q_JKq77-251" value="" style="group" vertex="1" connectable="0" parent="1">
          <mxGeometry x="50" y="230" width="220" height="360" as="geometry" />
        </mxCell>
        <mxCell id="14xGYmycXX8T6q_JKq77-12" value="Original" style="shape=table;startSize=30;container=1;collapsible=1;childLayout=tableLayout;fixedRows=1;rowLines=0;fontStyle=1;align=center;resizeLast=1;" vertex="1" parent="14xGYmycXX8T6q_JKq77-251">
          <mxGeometry width="220" height="360" as="geometry" />
        </mxCell>
        <mxCell id="14xGYmycXX8T6q_JKq77-13" value="" style="shape=partialRectangle;collapsible=0;dropTarget=0;pointerEvents=0;fillColor=none;top=0;left=0;bottom=1;right=0;points=[[0,0.5],[1,0.5]];portConstraint=eastwest;" vertex="1" parent="14xGYmycXX8T6q_JKq77-12">
          <mxGeometry y="30" width="220" height="30" as="geometry" />
        </mxCell>
        <mxCell id="14xGYmycXX8T6q_JKq77-14" value="PK" style="shape=partialRectangle;connectable=0;fillColor=none;top=0;left=0;bottom=0;right=0;fontStyle=1;overflow=hidden;" vertex="1" parent="14xGYmycXX8T6q_JKq77-13">
          <mxGeometry width="30" height="30" as="geometry" />
        </mxCell>
        <mxCell id="14xGYmycXX8T6q_JKq77-15" value="UniqueID" style="shape=partialRectangle;connectable=0;fillColor=none;top=0;left=0;bottom=0;right=0;align=left;spacingLeft=6;fontStyle=5;overflow=hidden;" vertex="1" parent="14xGYmycXX8T6q_JKq77-13">
          <mxGeometry x="30" width="190" height="30" as="geometry" />
        </mxCell>
        <mxCell id="14xGYmycXX8T6q_JKq77-16" value="" style="shape=partialRectangle;collapsible=0;dropTarget=0;pointerEvents=0;fillColor=none;top=0;left=0;bottom=0;right=0;points=[[0,0.5],[1,0.5]];portConstraint=eastwest;" vertex="1" parent="14xGYmycXX8T6q_JKq77-12">
          <mxGeometry y="60" width="220" height="30" as="geometry" />
        </mxCell>
        <mxCell id="14xGYmycXX8T6q_JKq77-17" value="" style="shape=partialRectangle;connectable=0;fillColor=none;top=0;left=0;bottom=0;right=0;editable=1;overflow=hidden;" vertex="1" parent="14xGYmycXX8T6q_JKq77-16">
          <mxGeometry width="30" height="30" as="geometry" />
        </mxCell>
        <mxCell id="14xGYmycXX8T6q_JKq77-32" value="" style="group" vertex="1" connectable="0" parent="14xGYmycXX8T6q_JKq77-16">
          <mxGeometry x="30" width="190" height="30" as="geometry" />
        </mxCell>
        <mxCell id="14xGYmycXX8T6q_JKq77-44" value="String" style="shape=partialRectangle;connectable=0;fillColor=none;top=0;left=0;bottom=0;right=0;align=left;spacingLeft=6;overflow=hidden;" vertex="1" parent="14xGYmycXX8T6q_JKq77-32">
          <mxGeometry x="110" width="80" height="30" as="geometry" />
        </mxCell>
        <mxCell id="14xGYmycXX8T6q_JKq77-18" value="Title" style="shape=partialRectangle;connectable=0;fillColor=none;top=0;left=0;bottom=0;right=0;align=left;spacingLeft=6;overflow=hidden;" vertex="1" parent="14xGYmycXX8T6q_JKq77-32">
          <mxGeometry width="90" height="30" as="geometry" />
        </mxCell>
        <mxCell id="14xGYmycXX8T6q_JKq77-19" value="" style="shape=partialRectangle;collapsible=0;dropTarget=0;pointerEvents=0;fillColor=none;top=0;left=0;bottom=0;right=0;points=[[0,0.5],[1,0.5]];portConstraint=eastwest;" vertex="1" parent="14xGYmycXX8T6q_JKq77-12">
          <mxGeometry y="90" width="220" height="30" as="geometry" />
        </mxCell>
        <mxCell id="14xGYmycXX8T6q_JKq77-20" value="" style="shape=partialRectangle;connectable=0;fillColor=none;top=0;left=0;bottom=0;right=0;editable=1;overflow=hidden;" vertex="1" parent="14xGYmycXX8T6q_JKq77-19">
          <mxGeometry width="30" height="30" as="geometry" />
        </mxCell>
        <mxCell id="14xGYmycXX8T6q_JKq77-21" value="Medium" style="shape=partialRectangle;connectable=0;fillColor=none;top=0;left=0;bottom=0;right=0;align=left;spacingLeft=6;overflow=hidden;" vertex="1" parent="14xGYmycXX8T6q_JKq77-19">
          <mxGeometry x="30" width="190" height="30" as="geometry" />
        </mxCell>
        <mxCell id="14xGYmycXX8T6q_JKq77-22" value="" style="shape=partialRectangle;collapsible=0;dropTarget=0;pointerEvents=0;fillColor=none;top=0;left=0;bottom=0;right=0;points=[[0,0.5],[1,0.5]];portConstraint=eastwest;" vertex="1" parent="14xGYmycXX8T6q_JKq77-12">
          <mxGeometry y="120" width="220" height="30" as="geometry" />
        </mxCell>
        <mxCell id="14xGYmycXX8T6q_JKq77-23" value="" style="shape=partialRectangle;connectable=0;fillColor=none;top=0;left=0;bottom=0;right=0;editable=1;overflow=hidden;" vertex="1" parent="14xGYmycXX8T6q_JKq77-22">
          <mxGeometry width="30" height="30" as="geometry" />
        </mxCell>
        <mxCell id="14xGYmycXX8T6q_JKq77-24" value="Dimensions" style="shape=partialRectangle;connectable=0;fillColor=none;top=0;left=0;bottom=0;right=0;align=left;spacingLeft=6;overflow=hidden;" vertex="1" parent="14xGYmycXX8T6q_JKq77-22">
          <mxGeometry x="30" width="190" height="30" as="geometry" />
        </mxCell>
        <mxCell id="14xGYmycXX8T6q_JKq77-25" value="Price" style="shape=partialRectangle;connectable=0;fillColor=none;top=0;left=0;bottom=0;right=0;align=left;spacingLeft=6;overflow=hidden;" vertex="1" parent="14xGYmycXX8T6q_JKq77-251">
          <mxGeometry x="30" y="150" width="150" height="30" as="geometry" />
        </mxCell>
        <mxCell id="14xGYmycXX8T6q_JKq77-26" value="Date Created" style="shape=partialRectangle;connectable=0;fillColor=none;top=0;left=0;bottom=0;right=0;align=left;spacingLeft=6;overflow=hidden;" vertex="1" parent="14xGYmycXX8T6q_JKq77-251">
          <mxGeometry x="30" y="180" width="150" height="30" as="geometry" />
        </mxCell>
        <mxCell id="14xGYmycXX8T6q_JKq77-27" value="Status" style="shape=partialRectangle;connectable=0;fillColor=none;top=0;left=0;bottom=0;right=0;align=left;spacingLeft=6;overflow=hidden;" vertex="1" parent="14xGYmycXX8T6q_JKq77-251">
          <mxGeometry x="30" y="210" width="150" height="30" as="geometry" />
        </mxCell>
        <mxCell id="14xGYmycXX8T6q_JKq77-28" value="Possession" style="shape=partialRectangle;connectable=0;fillColor=none;top=0;left=0;bottom=0;right=0;align=left;spacingLeft=6;overflow=hidden;" vertex="1" parent="14xGYmycXX8T6q_JKq77-251">
          <mxGeometry x="30" y="240" width="150" height="30" as="geometry" />
        </mxCell>
        <mxCell id="14xGYmycXX8T6q_JKq77-29" value="Has Prints" style="shape=partialRectangle;connectable=0;fillColor=none;top=0;left=0;bottom=0;right=0;align=left;spacingLeft=6;overflow=hidden;" vertex="1" parent="14xGYmycXX8T6q_JKq77-251">
          <mxGeometry x="30" y="270" width="150" height="30" as="geometry" />
        </mxCell>
        <mxCell id="14xGYmycXX8T6q_JKq77-30" value="Edition Size" style="shape=partialRectangle;connectable=0;fillColor=none;top=0;left=0;bottom=0;right=0;align=left;spacingLeft=6;overflow=hidden;" vertex="1" parent="14xGYmycXX8T6q_JKq77-251">
          <mxGeometry x="30" y="300" width="150" height="30" as="geometry" />
        </mxCell>
        <mxCell id="14xGYmycXX8T6q_JKq77-31" value="Is Commission&#xa;" style="shape=partialRectangle;connectable=0;fillColor=none;top=0;left=0;bottom=0;right=0;align=left;spacingLeft=6;overflow=hidden;verticalAlign=top;" vertex="1" parent="14xGYmycXX8T6q_JKq77-251">
          <mxGeometry x="30" y="330" width="150" height="30" as="geometry" />
        </mxCell>
        <mxCell id="14xGYmycXX8T6q_JKq77-33" value="FK" style="shape=partialRectangle;connectable=0;fillColor=none;top=0;left=0;bottom=0;right=0;editable=1;overflow=hidden;" vertex="1" parent="14xGYmycXX8T6q_JKq77-251">
          <mxGeometry y="240" width="30" height="30" as="geometry" />
        </mxCell>
        <mxCell id="14xGYmycXX8T6q_JKq77-42" value="bool" style="shape=partialRectangle;connectable=0;fillColor=none;top=0;left=0;bottom=0;right=0;align=left;spacingLeft=6;overflow=hidden;" vertex="1" parent="14xGYmycXX8T6q_JKq77-251">
          <mxGeometry x="140" y="330" width="80" height="30" as="geometry" />
        </mxCell>
        <mxCell id="14xGYmycXX8T6q_JKq77-43" value="Int" style="shape=partialRectangle;connectable=0;fillColor=none;top=0;left=0;bottom=0;right=0;align=left;spacingLeft=6;overflow=hidden;" vertex="1" parent="14xGYmycXX8T6q_JKq77-251">
          <mxGeometry x="140" y="30" width="80" height="30" as="geometry" />
        </mxCell>
        <mxCell id="14xGYmycXX8T6q_JKq77-51" value="String" style="shape=partialRectangle;connectable=0;fillColor=none;top=0;left=0;bottom=0;right=0;align=left;spacingLeft=6;overflow=hidden;" vertex="1" parent="14xGYmycXX8T6q_JKq77-251">
          <mxGeometry x="140" y="90" width="80" height="30" as="geometry" />
        </mxCell>
        <mxCell id="14xGYmycXX8T6q_JKq77-52" value="String" style="shape=partialRectangle;connectable=0;fillColor=none;top=0;left=0;bottom=0;right=0;align=left;spacingLeft=6;overflow=hidden;" vertex="1" parent="14xGYmycXX8T6q_JKq77-251">
          <mxGeometry x="140" y="120" width="80" height="30" as="geometry" />
        </mxCell>
        <mxCell id="14xGYmycXX8T6q_JKq77-53" value="Int" style="shape=partialRectangle;connectable=0;fillColor=none;top=0;left=0;bottom=0;right=0;align=left;spacingLeft=6;overflow=hidden;" vertex="1" parent="14xGYmycXX8T6q_JKq77-251">
          <mxGeometry x="140" y="150" width="80" height="30" as="geometry" />
        </mxCell>
        <mxCell id="14xGYmycXX8T6q_JKq77-54" value="datetime" style="shape=partialRectangle;connectable=0;fillColor=none;top=0;left=0;bottom=0;right=0;align=left;spacingLeft=6;overflow=hidden;" vertex="1" parent="14xGYmycXX8T6q_JKq77-251">
          <mxGeometry x="140" y="180" width="80" height="30" as="geometry" />
        </mxCell>
        <mxCell id="14xGYmycXX8T6q_JKq77-55" value="string" style="shape=partialRectangle;connectable=0;fillColor=none;top=0;left=0;bottom=0;right=0;align=left;spacingLeft=6;overflow=hidden;" vertex="1" parent="14xGYmycXX8T6q_JKq77-251">
          <mxGeometry x="140" y="210" width="80" height="30" as="geometry" />
        </mxCell>
        <mxCell id="14xGYmycXX8T6q_JKq77-56" value="Int" style="shape=partialRectangle;connectable=0;fillColor=none;top=0;left=0;bottom=0;right=0;align=left;spacingLeft=6;overflow=hidden;" vertex="1" parent="14xGYmycXX8T6q_JKq77-251">
          <mxGeometry x="140" y="240" width="80" height="30" as="geometry" />
        </mxCell>
        <mxCell id="14xGYmycXX8T6q_JKq77-57" value="bool" style="shape=partialRectangle;connectable=0;fillColor=none;top=0;left=0;bottom=0;right=0;align=left;spacingLeft=6;overflow=hidden;" vertex="1" parent="14xGYmycXX8T6q_JKq77-251">
          <mxGeometry x="140" y="270" width="80" height="30" as="geometry" />
        </mxCell>
        <mxCell id="14xGYmycXX8T6q_JKq77-58" value="int" style="shape=partialRectangle;connectable=0;fillColor=none;top=0;left=0;bottom=0;right=0;align=left;spacingLeft=6;overflow=hidden;" vertex="1" parent="14xGYmycXX8T6q_JKq77-251">
          <mxGeometry x="140" y="300" width="80" height="30" as="geometry" />
        </mxCell>
        <mxCell id="14xGYmycXX8T6q_JKq77-253" value="" style="group" vertex="1" connectable="0" parent="1">
          <mxGeometry x="500" y="380" width="220" height="240" as="geometry" />
        </mxCell>
        <mxCell id="14xGYmycXX8T6q_JKq77-111" value="" style="group" vertex="1" connectable="0" parent="14xGYmycXX8T6q_JKq77-253">
          <mxGeometry width="220" height="240" as="geometry" />
        </mxCell>
        <mxCell id="14xGYmycXX8T6q_JKq77-93" value="" style="shape=partialRectangle;connectable=0;fillColor=none;top=0;left=0;bottom=0;right=0;align=left;spacingLeft=6;overflow=hidden;" vertex="1" parent="14xGYmycXX8T6q_JKq77-111">
          <mxGeometry x="30" y="210" width="150" height="30" as="geometry" />
        </mxCell>
        <mxCell id="14xGYmycXX8T6q_JKq77-249" value="" style="group" vertex="1" connectable="0" parent="14xGYmycXX8T6q_JKq77-111">
          <mxGeometry width="220" height="210" as="geometry" />
        </mxCell>
        <mxCell id="14xGYmycXX8T6q_JKq77-76" value="Print" style="shape=table;startSize=30;container=1;collapsible=1;childLayout=tableLayout;fixedRows=1;rowLines=0;fontStyle=1;align=center;resizeLast=1;" vertex="1" parent="14xGYmycXX8T6q_JKq77-249">
          <mxGeometry width="220" height="210" as="geometry" />
        </mxCell>
        <mxCell id="14xGYmycXX8T6q_JKq77-77" value="" style="shape=partialRectangle;collapsible=0;dropTarget=0;pointerEvents=0;fillColor=none;top=0;left=0;bottom=1;right=0;points=[[0,0.5],[1,0.5]];portConstraint=eastwest;" vertex="1" parent="14xGYmycXX8T6q_JKq77-76">
          <mxGeometry y="30" width="220" height="30" as="geometry" />
        </mxCell>
        <mxCell id="14xGYmycXX8T6q_JKq77-78" value="PK" style="shape=partialRectangle;connectable=0;fillColor=none;top=0;left=0;bottom=0;right=0;fontStyle=1;overflow=hidden;" vertex="1" parent="14xGYmycXX8T6q_JKq77-77">
          <mxGeometry width="30" height="30" as="geometry" />
        </mxCell>
        <mxCell id="14xGYmycXX8T6q_JKq77-79" value="UniqueID" style="shape=partialRectangle;connectable=0;fillColor=none;top=0;left=0;bottom=0;right=0;align=left;spacingLeft=6;fontStyle=5;overflow=hidden;" vertex="1" parent="14xGYmycXX8T6q_JKq77-77">
          <mxGeometry x="30" width="190" height="30" as="geometry" />
        </mxCell>
        <mxCell id="14xGYmycXX8T6q_JKq77-80" value="" style="shape=partialRectangle;collapsible=0;dropTarget=0;pointerEvents=0;fillColor=none;top=0;left=0;bottom=0;right=0;points=[[0,0.5],[1,0.5]];portConstraint=eastwest;" vertex="1" parent="14xGYmycXX8T6q_JKq77-76">
          <mxGeometry y="60" width="220" height="30" as="geometry" />
        </mxCell>
        <mxCell id="14xGYmycXX8T6q_JKq77-81" value="FK" style="shape=partialRectangle;connectable=0;fillColor=none;top=0;left=0;bottom=0;right=0;editable=1;overflow=hidden;" vertex="1" parent="14xGYmycXX8T6q_JKq77-80">
          <mxGeometry width="30" height="30" as="geometry" />
        </mxCell>
        <mxCell id="14xGYmycXX8T6q_JKq77-82" value="" style="group" vertex="1" connectable="0" parent="14xGYmycXX8T6q_JKq77-80">
          <mxGeometry x="30" width="190" height="30" as="geometry" />
        </mxCell>
        <mxCell id="14xGYmycXX8T6q_JKq77-83" value="Int" style="shape=partialRectangle;connectable=0;fillColor=none;top=0;left=0;bottom=0;right=0;align=left;spacingLeft=6;overflow=hidden;" vertex="1" parent="14xGYmycXX8T6q_JKq77-82">
          <mxGeometry x="110" width="80" height="30" as="geometry" />
        </mxCell>
        <mxCell id="14xGYmycXX8T6q_JKq77-84" value="Original_ID" style="shape=partialRectangle;connectable=0;fillColor=none;top=0;left=0;bottom=0;right=0;align=left;spacingLeft=6;overflow=hidden;" vertex="1" parent="14xGYmycXX8T6q_JKq77-82">
          <mxGeometry width="90" height="30" as="geometry" />
        </mxCell>
        <mxCell id="14xGYmycXX8T6q_JKq77-85" value="" style="shape=partialRectangle;collapsible=0;dropTarget=0;pointerEvents=0;fillColor=none;top=0;left=0;bottom=0;right=0;points=[[0,0.5],[1,0.5]];portConstraint=eastwest;" vertex="1" parent="14xGYmycXX8T6q_JKq77-76">
          <mxGeometry y="90" width="220" height="30" as="geometry" />
        </mxCell>
        <mxCell id="14xGYmycXX8T6q_JKq77-86" value="" style="shape=partialRectangle;connectable=0;fillColor=none;top=0;left=0;bottom=0;right=0;editable=1;overflow=hidden;" vertex="1" parent="14xGYmycXX8T6q_JKq77-85">
          <mxGeometry width="30" height="30" as="geometry" />
        </mxCell>
        <mxCell id="14xGYmycXX8T6q_JKq77-87" value="Number" style="shape=partialRectangle;connectable=0;fillColor=none;top=0;left=0;bottom=0;right=0;align=left;spacingLeft=6;overflow=hidden;" vertex="1" parent="14xGYmycXX8T6q_JKq77-85">
          <mxGeometry x="30" width="190" height="30" as="geometry" />
        </mxCell>
        <mxCell id="14xGYmycXX8T6q_JKq77-88" value="" style="shape=partialRectangle;collapsible=0;dropTarget=0;pointerEvents=0;fillColor=none;top=0;left=0;bottom=0;right=0;points=[[0,0.5],[1,0.5]];portConstraint=eastwest;" vertex="1" parent="14xGYmycXX8T6q_JKq77-76">
          <mxGeometry y="120" width="220" height="30" as="geometry" />
        </mxCell>
        <mxCell id="14xGYmycXX8T6q_JKq77-89" value="" style="shape=partialRectangle;connectable=0;fillColor=none;top=0;left=0;bottom=0;right=0;editable=1;overflow=hidden;" vertex="1" parent="14xGYmycXX8T6q_JKq77-88">
          <mxGeometry width="30" height="30" as="geometry" />
        </mxCell>
        <mxCell id="14xGYmycXX8T6q_JKq77-90" value="Date Ordered" style="shape=partialRectangle;connectable=0;fillColor=none;top=0;left=0;bottom=0;right=0;align=left;spacingLeft=6;overflow=hidden;" vertex="1" parent="14xGYmycXX8T6q_JKq77-88">
          <mxGeometry x="30" width="190" height="30" as="geometry" />
        </mxCell>
        <mxCell id="14xGYmycXX8T6q_JKq77-91" value="Status" style="shape=partialRectangle;connectable=0;fillColor=none;top=0;left=0;bottom=0;right=0;align=left;spacingLeft=6;overflow=hidden;" vertex="1" parent="14xGYmycXX8T6q_JKq77-249">
          <mxGeometry x="30" y="150" width="150" height="30" as="geometry" />
        </mxCell>
        <mxCell id="14xGYmycXX8T6q_JKq77-92" value="Contact_ID" style="shape=partialRectangle;connectable=0;fillColor=none;top=0;left=0;bottom=0;right=0;align=left;spacingLeft=6;overflow=hidden;" vertex="1" parent="14xGYmycXX8T6q_JKq77-249">
          <mxGeometry x="30" y="180" width="150" height="30" as="geometry" />
        </mxCell>
        <mxCell id="14xGYmycXX8T6q_JKq77-100" value="Int" style="shape=partialRectangle;connectable=0;fillColor=none;top=0;left=0;bottom=0;right=0;align=left;spacingLeft=6;overflow=hidden;" vertex="1" parent="14xGYmycXX8T6q_JKq77-249">
          <mxGeometry x="140" y="30" width="80" height="30" as="geometry" />
        </mxCell>
        <mxCell id="14xGYmycXX8T6q_JKq77-101" value="String" style="shape=partialRectangle;connectable=0;fillColor=none;top=0;left=0;bottom=0;right=0;align=left;spacingLeft=6;overflow=hidden;" vertex="1" parent="14xGYmycXX8T6q_JKq77-249">
          <mxGeometry x="140" y="90" width="80" height="30" as="geometry" />
        </mxCell>
        <mxCell id="14xGYmycXX8T6q_JKq77-102" value="datetime" style="shape=partialRectangle;connectable=0;fillColor=none;top=0;left=0;bottom=0;right=0;align=left;spacingLeft=6;overflow=hidden;" vertex="1" parent="14xGYmycXX8T6q_JKq77-249">
          <mxGeometry x="140" y="120" width="80" height="30" as="geometry" />
        </mxCell>
        <mxCell id="14xGYmycXX8T6q_JKq77-103" value="string" style="shape=partialRectangle;connectable=0;fillColor=none;top=0;left=0;bottom=0;right=0;align=left;spacingLeft=6;overflow=hidden;" vertex="1" parent="14xGYmycXX8T6q_JKq77-249">
          <mxGeometry x="140" y="150" width="80" height="30" as="geometry" />
        </mxCell>
        <mxCell id="14xGYmycXX8T6q_JKq77-104" value="string" style="shape=partialRectangle;connectable=0;fillColor=none;top=0;left=0;bottom=0;right=0;align=left;spacingLeft=6;overflow=hidden;" vertex="1" parent="14xGYmycXX8T6q_JKq77-249">
          <mxGeometry x="140" y="180" width="80" height="30" as="geometry" />
        </mxCell>
        <mxCell id="14xGYmycXX8T6q_JKq77-109" value="FK" style="shape=partialRectangle;connectable=0;fillColor=none;top=0;left=0;bottom=0;right=0;align=left;spacingLeft=6;overflow=hidden;" vertex="1" parent="14xGYmycXX8T6q_JKq77-249">
          <mxGeometry y="180" width="30" height="30" as="geometry" />
        </mxCell>
        <mxCell id="14xGYmycXX8T6q_JKq77-255" value="" style="edgeStyle=entityRelationEdgeStyle;fontSize=12;html=1;endArrow=ERzeroToMany;startArrow=ERmandOne;" edge="1" parent="1">
          <mxGeometry width="100" height="100" relative="1" as="geometry">
            <mxPoint x="270" y="410" as="sourcePoint" />
            <mxPoint x="500" y="498" as="targetPoint" />
          </mxGeometry>
        </mxCell>
        <mxCell id="14xGYmycXX8T6q_JKq77-256" value="" style="fontSize=12;html=1;endArrow=ERzeroToOne;startArrow=ERmandOne;edgeStyle=entityRelationEdgeStyle;entryX=0;entryY=0.867;entryDx=0;entryDy=0;entryPerimeter=0;" edge="1" parent="1" target="14xGYmycXX8T6q_JKq77-193">
          <mxGeometry width="100" height="100" relative="1" as="geometry">
            <mxPoint x="270" y="480" as="sourcePoint" />
            <mxPoint x="470" y="710" as="targetPoint" />
          </mxGeometry>
        </mxCell>
        <mxCell id="14xGYmycXX8T6q_JKq77-258" value="" style="edgeStyle=orthogonalEdgeStyle;fontSize=12;html=1;endArrow=ERzeroToOne;endFill=1;exitX=0.5;exitY=0;exitDx=0;exitDy=0;" edge="1" parent="1" source="14xGYmycXX8T6q_JKq77-189">
          <mxGeometry width="100" height="100" relative="1" as="geometry">
            <mxPoint x="540" y="730" as="sourcePoint" />
            <mxPoint x="610" y="590" as="targetPoint" />
          </mxGeometry>
        </mxCell>
        <mxCell id="14xGYmycXX8T6q_JKq77-259" value="" style="edgeStyle=orthogonalEdgeStyle;fontSize=12;html=1;endArrow=ERzeroToMany;startArrow=ERzeroToOne;curved=1;" edge="1" parent="1" source="14xGYmycXX8T6q_JKq77-113">
          <mxGeometry width="100" height="100" relative="1" as="geometry">
            <mxPoint x="140" y="720" as="sourcePoint" />
            <mxPoint x="230" y="590" as="targetPoint" />
          </mxGeometry>
        </mxCell>
        <mxCell id="14xGYmycXX8T6q_JKq77-260" value="" style="edgeStyle=orthogonalEdgeStyle;fontSize=12;html=1;endArrow=ERzeroToMany;startArrow=ERzeroToOne;curved=1;exitX=0.75;exitY=0;exitDx=0;exitDy=0;" edge="1" parent="1" source="14xGYmycXX8T6q_JKq77-113">
          <mxGeometry width="100" height="100" relative="1" as="geometry">
            <mxPoint x="220" y="710" as="sourcePoint" />
            <mxPoint x="590" y="590" as="targetPoint" />
          </mxGeometry>
        </mxCell>
        <mxCell id="14xGYmycXX8T6q_JKq77-261" value="" style="edgeStyle=entityRelationEdgeStyle;fontSize=12;html=1;endArrow=ERzeroToMany;startArrow=ERmandOne;entryX=0.001;entryY=0.894;entryDx=0;entryDy=0;entryPerimeter=0;" edge="1" parent="1" target="14xGYmycXX8T6q_JKq77-198">
          <mxGeometry width="100" height="100" relative="1" as="geometry">
            <mxPoint x="270" y="860" as="sourcePoint" />
            <mxPoint x="440" y="720" as="targetPoint" />
          </mxGeometry>
        </mxCell>
        <mxCell id="14xGYmycXX8T6q_JKq77-263" value="&lt;h1&gt;Database Structure Notes&lt;/h1&gt;" style="text;html=1;strokeColor=none;fillColor=none;spacing=5;spacingTop=-20;whiteSpace=wrap;overflow=hidden;rounded=0;fontSize=20;" vertex="1" parent="1">
          <mxGeometry x="40" y="20" width="500" height="120" as="geometry" />
        </mxCell>
      </root>
    </mxGraphModel>
  </diagram>
</mxfile>
